<svg width="114" height="105" viewBox="0 0 114 105" fill="none" xmlns="http://www.w3.org/2000/svg">
<path d="M98.867 25.292C97.29 17.937 90.526 12.408 82.419 12.408C78.454 12.408 74.817 13.738 71.944 15.95C67.1 6.502 56.997 0 45.311 0C30.201 0 17.736 10.87 15.874 24.928C6.821 26.891 0 34.705 0 43.99V43.998C0 54.75 9.139 63.547 20.308 63.547H92.97C104.14 63.547 113.278 54.75 113.278 43.998V43.99C113.278 35.211 107.183 27.74 98.867 25.292Z" fill="#0284C7"/>
<path d="M26.1581 16.364C30.6311 9.98498 37.4531 6.38198 45.2311 6.18398C47.0421 6.13798 47.0491 3.31698 45.2311 3.36398C36.4071 3.58898 28.7851 7.71899 23.7231 14.94C22.6791 16.429 25.1231 17.84 26.1581 16.364Z" fill="white"/>
<path d="M6.58911 45.045C6.72311 39.748 9.31011 35.133 13.7741 32.278C15.2981 31.303 13.8861 28.861 12.3511 29.843C7.02511 33.249 3.92911 38.726 3.76911 45.045C3.72311 46.861 6.54311 46.86 6.58911 45.045Z" fill="white"/>
<path d="M39.838 68.779C42.282 72.633 44.726 76.487 47.17 80.342C48.029 81.697 50.194 80.444 49.329 79.08C46.885 75.226 44.441 71.372 41.997 67.517C41.138 66.162 38.973 67.415 39.838 68.779Z" fill="#0284C7"/>
<path d="M56.201 71.964C58.645 75.818 61.089 79.672 63.533 83.527C64.392 84.882 66.557 83.629 65.692 82.265C63.248 78.411 60.804 74.557 58.36 70.702C57.501 69.347 55.336 70.6 56.201 71.964Z" fill="#0284C7"/>
<path d="M52.1021 89.554C54.5461 93.408 56.9901 97.262 59.4341 101.117C60.2931 102.472 62.4581 101.219 61.5931 99.855C59.1491 96.001 56.7051 92.147 54.2611 88.292C53.4021 86.937 51.2371 88.19 52.1021 89.554Z" fill="#0284C7"/>
<path d="M37.148 84.22C39.592 88.074 42.036 91.928 44.48 95.783C45.339 97.138 47.504 95.885 46.639 94.521C44.195 90.667 41.751 86.813 39.307 82.958C38.448 81.603 36.283 82.856 37.148 84.22Z" fill="#0284C7"/>
<path d="M68.4649 92.739C70.9089 96.593 73.3529 100.447 75.7969 104.302C76.6559 105.657 78.8209 104.404 77.9559 103.04C75.5119 99.186 73.0679 95.332 70.6239 91.477C69.7649 90.122 67.5999 91.375 68.4649 92.739Z" fill="#0284C7"/>
<path d="M72.132 76.343C74.576 80.197 77.02 84.051 79.464 87.906C80.323 89.261 82.488 88.008 81.623 86.644C79.179 82.79 76.735 78.936 74.291 75.081C73.431 73.726 71.267 74.979 72.132 76.343Z" fill="#0284C7"/>
</svg>
