<svg width="114" height="90" viewBox="0 0 114 90" fill="none" xmlns="http://www.w3.org/2000/svg">
<path d="M98.867 25.292C97.29 17.937 90.526 12.408 82.419 12.408C78.454 12.408 74.817 13.738 71.944 15.95C67.1 6.502 56.997 0 45.311 0C30.201 0 17.736 10.87 15.874 24.929C6.821 26.892 0 34.705 0 43.991V43.998C0 54.75 9.139 63.547 20.308 63.547H92.97C104.14 63.547 113.278 54.75 113.278 43.998V43.991C113.278 35.21 107.183 27.74 98.867 25.292Z" fill="#0284C7"/>
<path d="M26.1581 16.363C30.6311 9.98398 37.4531 6.38198 45.2311 6.18298C47.0421 6.13698 47.0491 3.31698 45.2311 3.36298C36.4071 3.58798 28.7851 7.71798 23.7231 14.939C22.6791 16.429 25.1231 17.839 26.1581 16.363Z" fill="white"/>
<path d="M6.58911 45.045C6.72311 39.748 9.31011 35.133 13.7741 32.278C15.2981 31.303 13.8861 28.861 12.3511 29.843C7.02511 33.249 3.92911 38.726 3.76911 45.045C3.72311 46.86 6.54311 46.859 6.58911 45.045Z" fill="white"/>
<path d="M27 72H87" stroke="#0284C7" stroke-width="3" stroke-linecap="round"/>
<path d="M20 80H94" stroke="#0284C7" stroke-width="3" stroke-linecap="round"/>
<path d="M27 88H87" stroke="#0284C7" stroke-width="3" stroke-linecap="round"/>
</svg>
