<svg width="114" height="90" viewBox="0 0 114 90" fill="none" xmlns="http://www.w3.org/2000/svg">
<path d="M77.798 79.807C76.606 80.127 75.413 80.446 74.221 80.765C72.684 79.878 71.1479 78.991 69.6109 78.104C71.1479 77.217 72.684 76.33 74.221 75.443C75.413 75.763 76.606 76.082 77.798 76.401C78.676 76.636 79.05 75.276 78.173 75.041C77.432 74.842 76.69 74.644 75.949 74.445C76.471 74.143 76.994 73.842 77.517 73.54C78.303 73.086 77.593 71.867 76.805 72.322C76.285 72.622 75.764 72.923 75.244 73.223C75.442 72.485 75.64 71.747 75.837 71.009C76.072 70.131 74.712 69.757 74.477 70.634C74.157 71.829 73.836 73.025 73.516 74.22C71.979 75.107 70.443 75.994 68.906 76.881C68.906 75.107 68.906 73.332 68.906 71.558C69.78 70.684 70.654 69.81 71.528 68.936C72.17 68.293 71.174 67.296 70.531 67.939C69.989 68.481 69.448 69.022 68.906 69.564C68.906 68.962 68.906 68.36 68.906 67.757C68.906 66.85 67.496 66.848 67.496 67.757C67.496 68.359 67.496 68.961 67.496 69.564C66.954 69.022 66.413 68.481 65.871 67.939C65.229 67.297 64.2309 68.293 64.8739 68.936C65.7479 69.81 66.622 70.684 67.496 71.558C67.496 73.332 67.496 75.107 67.496 76.881C65.959 75.994 64.423 75.107 62.886 74.22C62.566 73.025 62.245 71.829 61.925 70.634C61.69 69.758 60.33 70.13 60.565 71.009C60.763 71.747 60.961 72.485 61.158 73.223C60.638 72.923 60.117 72.622 59.597 72.322C58.81 71.867 58.099 73.085 58.885 73.54C59.408 73.842 59.93 74.143 60.453 74.445C59.712 74.644 58.97 74.842 58.229 75.041C57.353 75.275 57.725 76.636 58.604 76.401C59.796 76.082 60.988 75.762 62.181 75.443C63.718 76.33 65.254 77.217 66.791 78.104C65.254 78.991 63.718 79.878 62.181 80.765C60.989 80.446 59.797 80.126 58.604 79.807C57.726 79.572 57.352 80.932 58.229 81.167C58.97 81.366 59.712 81.564 60.453 81.763C59.93 82.065 59.408 82.366 58.885 82.668C58.099 83.122 58.809 84.341 59.597 83.885C60.117 83.585 60.638 83.284 61.158 82.984C60.96 83.722 60.762 84.46 60.565 85.198C60.33 86.076 61.69 86.45 61.925 85.573C62.245 84.378 62.566 83.182 62.886 81.987C64.423 81.1 65.959 80.213 67.496 79.326C67.496 81.1 67.496 82.875 67.496 84.649C66.622 85.523 65.7479 86.397 64.8739 87.271C64.2319 87.913 65.228 88.911 65.871 88.268C66.413 87.726 66.954 87.185 67.496 86.643C67.496 87.245 67.496 87.847 67.496 88.45C67.496 89.357 68.906 89.359 68.906 88.45C68.906 87.848 68.906 87.246 68.906 86.643C69.448 87.185 69.989 87.726 70.531 88.268C71.174 88.911 72.171 87.914 71.528 87.271C70.654 86.397 69.78 85.523 68.906 84.649C68.906 82.875 68.906 81.1 68.906 79.326C70.443 80.213 71.979 81.1 73.516 81.987C73.836 83.182 74.157 84.378 74.477 85.573C74.711 86.449 76.072 86.077 75.837 85.198C75.639 84.46 75.441 83.722 75.244 82.984C75.764 83.284 76.285 83.585 76.805 83.885C77.592 84.34 78.303 83.122 77.517 82.668C76.994 82.366 76.472 82.065 75.949 81.763C76.69 81.564 77.432 81.366 78.173 81.167C79.049 80.932 78.677 79.571 77.798 79.807Z" fill="#0284C7"/>
<path d="M98.868 25.292C97.291 17.937 90.527 12.408 82.42 12.408C78.455 12.408 74.818 13.738 71.945 15.95C67.101 6.50201 56.998 0 45.312 0C30.202 0 17.737 10.87 15.874 24.929C6.82096 26.892 0 34.705 0 43.991V43.999C0 54.364 8.49897 62.888 19.116 63.49C23.661 58.945 28.206 54.401 32.75 49.856C34.678 47.928 37.669 50.92 35.741 52.847C32.174 56.414 28.607 59.981 25.04 63.549H30.338C34.902 58.985 39.466 54.42 44.031 49.856C45.959 47.928 48.95 50.92 47.022 52.847C43.455 56.414 39.888 59.981 36.321 63.549H41.619C46.183 58.985 50.748 54.42 55.312 49.856C57.24 47.928 60.231 50.92 58.303 52.847C54.736 56.414 51.169 59.981 47.602 63.549H92.971C104.14 63.549 113.279 54.752 113.279 44V43.992C113.279 35.21 107.184 27.74 98.868 25.292ZM13.775 32.278C9.31096 35.133 6.72397 39.747 6.58997 45.045C6.54397 46.86 3.72402 46.86 3.77002 45.045C3.93002 38.726 7.02599 33.249 12.352 29.843C13.887 28.861 15.3 31.303 13.775 32.278ZM45.232 6.18402C37.453 6.38202 30.631 9.98401 26.159 16.364C25.124 17.841 22.68 16.43 23.724 14.941C28.787 7.72004 36.409 3.58899 45.233 3.36499C47.05 3.31699 47.043 6.13702 45.232 6.18402Z" fill="#0284C7"/>
<path d="M13.775 32.278C9.31103 35.133 6.72403 39.747 6.59003 45.045C6.54403 46.86 3.72409 46.86 3.77009 45.045C3.93009 38.726 7.02606 33.249 12.3521 29.843C13.8871 28.861 15.3 31.303 13.775 32.278ZM23.7231 14.94C28.7861 7.71901 36.4081 3.58802 45.2321 3.36402C47.0501 3.31802 47.0431 6.13803 45.2321 6.18403C37.4531 6.38203 30.6311 9.98402 26.1591 16.364C25.1231 17.84 22.6791 16.429 23.7231 14.94Z" fill="white"/>
<path d="M41.619 63.546C38.052 67.113 34.485 70.68 30.918 74.247C28.991 76.174 31.981 79.167 33.909 77.238C38.473 72.674 43.037 68.11 47.602 63.545H41.619V63.546ZM30.339 63.546C26.772 67.113 23.205 70.68 19.638 74.247C17.711 76.174 20.701 79.167 22.629 77.238C27.193 72.674 31.757 68.11 36.322 63.545H30.339V63.546ZM25.041 63.546L19.117 63.488C15.53 67.075 11.944 70.661 8.35698 74.248C6.42998 76.175 9.42001 79.168 11.348 77.239C15.912 72.675 20.477 68.111 25.041 63.546Z" fill="#0284C7"/>
</svg>
