<svg width="102" height="59" viewBox="0 0 102 59" fill="none" xmlns="http://www.w3.org/2000/svg">
<path d="M40.9046 15.6292C41.8792 11.0841 46.059 7.66751 51.0687 7.66751C53.5188 7.66751 55.7663 8.48938 57.5417 9.85628C60.535 4.0179 66.7788 0 73.9995 0C83.3367 0 91.0394 6.7171 92.1907 15.4048C97.785 16.6179 102 21.4465 102 27.1842V27.1885C102 33.8327 96.3526 39.2688 89.4507 39.2688H44.5493C37.6474 39.2688 32 33.8327 32 27.1885V27.1842C31.9994 21.758 35.7658 17.1419 40.9046 15.6292Z" fill="#38BDF8"/>
<path d="M85.8349 10.1115C83.0708 6.16961 78.8551 3.94375 74.0487 3.82078C72.9296 3.79236 72.9247 2.04974 74.0487 2.07816C79.5015 2.2172 84.2115 4.76933 87.3396 9.23154C87.9847 10.1523 86.4744 11.0242 85.8349 10.1115Z" fill="white"/>
<path d="M97.927 27.8355C97.8442 24.5622 96.2455 21.7104 93.487 19.9461C92.5452 19.3436 93.4178 17.8346 94.3663 18.4414C97.6575 20.5461 99.5707 23.9307 99.6696 27.8355C99.698 28.9571 97.9554 28.9571 97.927 27.8355Z" fill="white"/>
<path d="M87.2791 25.2214C85.8869 18.7285 79.9158 13.8476 72.759 13.8476C69.2588 13.8476 66.0481 15.0217 63.5119 16.9744C59.2357 8.63391 50.316 2.89404 40.0007 2.89404C26.6618 2.89404 15.6579 12.4899 14.0133 24.901C6.02146 26.6339 0 33.5319 0 41.7286V41.7348C0 51.2265 8.06775 58.9923 17.9276 58.9923H82.0724C91.9323 58.9923 100 51.2265 100 41.7348V41.7286C100.001 33.9769 94.6203 27.3825 87.2791 25.2214Z" fill="#0284C7"/>
<path d="M23.0929 17.339C27.0416 11.7077 33.0639 8.52795 39.9302 8.35228C41.5289 8.31167 41.536 5.82222 39.9302 5.86283C32.1405 6.06145 25.412 9.70735 20.9433 16.0819C20.0217 17.3973 22.1792 18.6429 23.0929 17.339Z" fill="white"/>
<path d="M5.81856 42.6591C5.93686 37.983 8.22062 33.9089 12.1614 31.3886C13.5067 30.5278 12.2602 28.3721 10.9052 29.239C6.20345 32.2457 3.47035 37.0808 3.3291 42.6591C3.2885 44.2613 5.77795 44.2613 5.81856 42.6591Z" fill="white"/>
</svg>
