<svg width="114" height="83" viewBox="0 0 114 83" fill="none" xmlns="http://www.w3.org/2000/svg">
<path d="M98.868 44.186C97.291 36.831 90.527 31.302 82.42 31.302C78.455 31.302 74.818 32.632 71.945 34.844C67.101 25.396 56.997 18.894 45.312 18.894C30.202 18.894 17.737 29.764 15.874 43.823C6.82101 45.786 0 53.6 0 62.885V62.892C0 73.644 9.139 82.441 20.308 82.441H92.97C104.139 82.441 113.278 73.644 113.278 62.892V62.885C113.279 54.104 107.184 46.634 98.868 44.186Z" fill="#0284C7"/>
<path d="M26.1591 35.257C30.6321 28.878 37.4531 25.276 45.2321 25.077C47.0431 25.031 47.0501 22.211 45.2321 22.257C36.4081 22.482 28.7861 26.612 23.7241 33.833C22.6801 35.323 25.1241 36.734 26.1591 35.257Z" fill="white"/>
<path d="M6.59008 63.939C6.72408 58.642 9.31109 54.027 13.7751 51.172C15.2991 50.197 13.8871 47.755 12.3521 48.737C7.02609 52.143 3.93009 57.62 3.77009 63.939C3.72409 65.754 6.54508 65.753 6.59008 63.939Z" fill="white"/>
<path d="M72.713 31.619C75.641 29.929 78.952 29.046 82.42 29.046C90.946 29.046 98.446 34.599 100.748 42.427C101.548 42.713 102.316 43.056 103.068 43.424C107.759 38.826 110.673 32.421 110.673 25.334C110.673 11.342 99.331 0 85.339 0C73.061 0 62.825 8.735 60.501 20.329C65.474 22.916 69.712 26.769 72.713 31.619Z" fill="#FECA18"/>
</svg>
