<svg width="114" height="104" viewBox="0 0 114 104" fill="none" xmlns="http://www.w3.org/2000/svg">
<path d="M56.689 67.809C59.133 71.663 61.577 75.517 64.021 79.372C64.88 80.727 67.045 79.474 66.18 78.11C63.736 74.256 61.292 70.402 58.848 66.547C57.989 65.192 55.824 66.445 56.689 67.809Z" fill="#0284C7"/>
<path d="M73.0518 70.994C75.4958 74.848 77.9399 78.702 80.3839 82.557C81.2429 83.912 83.4079 82.659 82.5429 81.295C80.0989 77.441 77.6549 73.587 75.2109 69.732C74.3519 68.377 72.1868 69.63 73.0518 70.994Z" fill="#0284C7"/>
<path d="M68.953 88.583C71.397 92.437 73.841 96.291 76.285 100.146C77.144 101.501 79.309 100.248 78.444 98.884C76 95.03 73.556 91.176 71.112 87.321C70.253 85.967 68.088 87.219 68.953 88.583Z" fill="#0284C7"/>
<path d="M53.9989 83.249C56.4429 87.103 58.8869 90.957 61.3309 94.812C62.1899 96.167 64.3549 94.914 63.4899 93.55C61.0459 89.696 58.6019 85.842 56.1579 81.987C55.2979 80.632 53.1339 81.885 53.9989 83.249Z" fill="#0284C7"/>
<path d="M85.316 91.768C87.76 95.622 90.204 99.476 92.648 103.331C93.507 104.686 95.672 103.433 94.807 102.069C92.363 98.215 89.919 94.361 87.475 90.506C86.616 89.152 84.451 90.405 85.316 91.768Z" fill="#0284C7"/>
<path d="M88.9829 75.372C91.4269 79.226 93.8709 83.08 96.3149 86.935C97.1739 88.29 99.3389 87.0371 98.4739 85.6731C96.0299 81.8191 93.5859 77.965 91.1419 74.11C90.2819 72.755 88.1169 74.008 88.9829 75.372Z" fill="#0284C7"/>
<path d="M98.868 25.292C97.291 17.937 90.527 12.408 82.42 12.408C78.455 12.408 74.818 13.738 71.945 15.95C67.101 6.50201 56.998 0 45.312 0C30.202 0 17.737 10.87 15.874 24.929C6.82099 26.892 0 34.705 0 43.991V43.999C0 54.364 8.499 62.888 19.116 63.49C23.661 58.945 28.206 54.401 32.75 49.856C34.678 47.928 37.669 50.92 35.741 52.847C32.174 56.414 28.607 59.981 25.04 63.549H30.338C34.902 58.985 39.466 54.42 44.031 49.856C45.959 47.928 48.95 50.92 47.022 52.847C43.455 56.414 39.888 59.981 36.32 63.549H41.618C46.182 58.985 50.747 54.42 55.311 49.856C57.239 47.928 60.23 50.92 58.302 52.847C54.735 56.414 51.168 59.981 47.601 63.549H92.97C104.139 63.549 113.278 54.752 113.278 44V43.992C113.279 35.21 107.184 27.74 98.868 25.292ZM13.775 32.278C9.31099 35.133 6.724 39.747 6.59 45.045C6.544 46.86 3.72399 46.86 3.76999 45.045C3.92999 38.726 7.02599 33.249 12.352 29.843C13.887 28.861 15.3 31.303 13.775 32.278ZM45.232 6.18402C37.453 6.38202 30.631 9.98401 26.159 16.364C25.124 17.841 22.68 16.43 23.724 14.941C28.787 7.72004 36.409 3.58899 45.232 3.36499C47.051 3.31699 47.044 6.13702 45.232 6.18402Z" fill="#0284C7"/>
<path d="M13.7751 32.278C9.31109 35.133 6.7241 39.747 6.5901 45.045C6.5441 46.86 3.72409 46.86 3.77009 45.045C3.93009 38.726 7.02609 33.249 12.3521 29.843C13.8871 28.861 15.3001 31.303 13.7751 32.278ZM23.7241 14.94C28.7871 7.71901 36.4091 3.58802 45.2321 3.36402C47.0501 3.31802 47.0431 6.13803 45.2321 6.18403C37.4531 6.38203 30.6311 9.98402 26.1591 16.364C25.1241 17.84 22.6801 16.429 23.7241 14.94Z" fill="white"/>
<path d="M41.6199 63.546C38.0529 67.113 34.4859 70.68 30.9189 74.247C28.9909 76.174 31.9819 79.167 33.9099 77.238C38.4739 72.674 43.0379 68.11 47.6029 63.545H41.6199V63.546ZM30.3389 63.546C26.7719 67.113 23.2049 70.68 19.6369 74.247C17.7099 76.174 20.6999 79.167 22.6279 77.238C27.1919 72.674 31.7559 68.11 36.3209 63.545H30.3389V63.546ZM25.0409 63.546L19.1169 63.488C15.5299 67.075 11.9439 70.661 8.3569 74.248C6.4289 76.175 9.4199 79.168 11.3479 77.239C15.9129 72.675 20.4769 68.111 25.0409 63.546Z" fill="#0284C7"/>
</svg>
