<svg width="114" height="78" viewBox="0 0 114 78" fill="none" xmlns="http://www.w3.org/2000/svg">
<path d="M98.868 25.2921C97.291 17.9371 90.527 12.4081 82.42 12.4081C78.455 12.4081 74.818 13.7381 71.945 15.9501C67.102 6.50207 56.998 6.10352e-05 45.312 6.10352e-05C30.202 6.10352e-05 17.737 10.8701 15.874 24.9291C6.821 26.8921 0 34.7061 0 43.9911V43.9991C0 54.3641 8.499 62.8881 19.116 63.4901C23.661 58.9451 28.206 54.4001 32.75 49.8561C34.678 47.9281 37.669 50.9201 35.741 52.8471C32.174 56.4141 28.607 59.9811 25.04 63.5481H30.338C34.902 58.9841 39.467 54.4201 44.031 49.8551C45.959 47.9271 48.95 50.9191 47.022 52.8461C43.455 56.4131 39.888 59.9801 36.321 63.5471H41.619C46.183 58.9831 50.748 54.4191 55.312 49.8541C57.24 47.9261 60.231 50.9181 58.303 52.8451C54.736 56.4121 51.169 59.9791 47.602 63.5461H92.971C104.14 63.5461 113.279 54.7491 113.279 43.9971V43.9891C113.279 35.2111 107.184 27.7401 98.868 25.2921ZM13.776 32.2781C9.312 35.1331 6.725 39.7471 6.591 45.0451C6.545 46.8601 3.725 46.8601 3.771 45.0451C3.931 38.7261 7.027 33.2491 12.353 29.8431C13.888 28.8621 15.3 31.3041 13.776 32.2781ZM45.233 6.18408C37.454 6.38208 30.632 9.98407 26.16 16.3641C25.125 17.8411 22.681 16.4301 23.725 14.9411C28.788 7.7201 36.41 3.58905 45.234 3.36505C47.051 3.31705 47.044 6.13808 45.233 6.18408Z" fill="#0284C7"/>
<path d="M13.7761 32.2781C9.31207 35.1331 6.72506 39.7471 6.59106 45.0451C6.54506 46.8601 3.72506 46.8601 3.77106 45.0451C3.93106 38.7261 7.02707 33.2491 12.3531 29.8431C13.8881 28.8621 15.3001 31.3041 13.7761 32.2781ZM23.7241 14.9401C28.7871 7.71907 36.4091 3.58808 45.2331 3.36408C47.0511 3.31808 47.0451 6.13809 45.2331 6.18409C37.4541 6.38209 30.6321 9.98408 26.1601 16.3641C25.1241 17.8401 22.6801 16.4291 23.7241 14.9401Z" fill="white"/>
<path d="M41.62 63.5461C38.053 67.1131 34.486 70.6801 30.919 74.2471C28.992 76.1741 31.982 79.1671 33.91 77.2381C38.474 72.6741 43.038 68.1101 47.603 63.5451L41.62 63.5461ZM30.34 63.5461C26.773 67.1131 23.206 70.6801 19.639 74.2471C17.712 76.1741 20.702 79.1671 22.63 77.2381C27.194 72.6741 31.758 68.1101 36.323 63.5451L30.34 63.5461ZM25.042 63.5461L19.118 63.4881C15.531 67.0751 11.945 70.6611 8.35796 74.2481C6.43096 76.1751 9.42096 79.1681 11.349 77.2391C15.913 72.6751 20.477 68.1111 25.042 63.5461Z" fill="#0284C7"/>
</svg>
