<svg width="114" height="89" viewBox="0 0 114 89" fill="none" xmlns="http://www.w3.org/2000/svg">
<path d="M98.868 25.292C97.291 17.937 90.527 12.408 82.42 12.408C78.455 12.408 74.818 13.738 71.945 15.95C67.101 6.50201 56.997 0 45.312 0C30.202 0 17.737 10.87 15.874 24.928C6.821 26.891 0 34.705 0 43.99V43.998C0 54.75 9.139 63.547 20.308 63.547H92.97C104.139 63.547 113.278 54.75 113.278 43.998V43.99C113.279 35.21 107.184 27.74 98.868 25.292Z" fill="#0284C7"/>
<path d="M26.1591 16.363C30.6321 9.98401 37.4541 6.38102 45.2321 6.18302C47.0441 6.13702 47.0511 3.31701 45.2321 3.36301C36.4081 3.58801 28.7861 7.71803 23.7241 14.939C22.6801 16.429 25.1241 17.84 26.1591 16.363Z" fill="white"/>
<path d="M6.59009 45.045C6.72409 39.748 9.31109 35.133 13.7751 32.278C15.2991 31.303 13.8871 28.861 12.3521 29.843C7.02609 33.249 3.93009 38.726 3.77009 45.045C3.72409 46.86 6.54509 46.86 6.59009 45.045Z" fill="white"/>
<path d="M49.4191 79.51C48.2271 79.83 47.0351 80.149 45.8421 80.468C44.3051 79.581 42.7691 78.694 41.2321 77.807C42.7681 76.92 44.3051 76.033 45.8421 75.146C47.0341 75.466 48.2261 75.785 49.4191 76.104C50.2971 76.339 50.6711 74.979 49.7941 74.744C49.0531 74.545 48.3111 74.347 47.5701 74.148C48.0921 73.846 48.6151 73.545 49.1381 73.243C49.9241 72.789 49.2141 71.57 48.4261 72.026C47.9061 72.326 47.3851 72.627 46.8651 72.927C47.0631 72.189 47.2611 71.451 47.4581 70.713C47.6931 69.835 46.3331 69.461 46.0981 70.338C45.7781 71.533 45.4571 72.729 45.1371 73.925C43.6001 74.812 42.0641 75.699 40.5271 76.586C40.5271 74.812 40.5271 73.037 40.5271 71.263C41.4011 70.389 42.2751 69.515 43.1491 68.641C43.7911 67.999 42.7951 67.001 42.1521 67.644C41.6101 68.185 41.0691 68.727 40.5271 69.269C40.5271 68.667 40.5271 68.065 40.5271 67.462C40.5271 66.555 39.1171 66.553 39.1171 67.462C39.1171 68.064 39.1171 68.666 39.1171 69.269C38.5751 68.727 38.0341 68.186 37.4921 67.644C36.8491 67.001 35.8521 67.998 36.4951 68.641C37.3691 69.515 38.2431 70.389 39.1171 71.263C39.1171 73.037 39.1171 74.812 39.1171 76.586C37.5801 75.699 36.0441 74.812 34.5071 73.925C34.1871 72.73 33.8661 71.534 33.5461 70.339C33.3111 69.463 31.9511 69.835 32.1861 70.714C32.3841 71.452 32.5821 72.19 32.7791 72.928C32.2591 72.628 31.7381 72.327 31.2181 72.027C30.4311 71.573 29.7201 72.79 30.5061 73.244C31.0281 73.546 31.5511 73.847 32.0741 74.149C31.3321 74.348 30.5911 74.546 29.8501 74.745C28.9741 74.98 29.3461 76.34 30.2251 76.105C31.4171 75.786 32.6091 75.466 33.8021 75.147C35.3381 76.034 36.8751 76.921 38.4121 77.808C36.8751 78.695 35.3391 79.582 33.8021 80.469C32.6101 80.15 31.4181 79.83 30.2251 79.511C29.3471 79.276 28.9731 80.636 29.8501 80.871C30.5911 81.07 31.3331 81.268 32.0741 81.467C31.5521 81.769 31.0291 82.07 30.5071 82.372C29.7211 82.826 30.4311 84.045 31.2191 83.59C31.7391 83.29 32.2601 82.989 32.7801 82.689C32.5821 83.427 32.3841 84.165 32.1871 84.903C31.9521 85.78 33.3121 86.155 33.5471 85.278C33.8671 84.083 34.1881 82.887 34.5081 81.692C36.0451 80.805 37.5811 79.918 39.1181 79.031C39.1181 80.805 39.1181 82.58 39.1181 84.354C38.2441 85.228 37.3701 86.102 36.4961 86.976C35.8531 87.618 36.8501 88.616 37.4931 87.973C38.0351 87.431 38.5761 86.89 39.1181 86.348C39.1181 86.95 39.1181 87.552 39.1181 88.155C39.1181 89.062 40.5281 89.064 40.5281 88.155C40.5281 87.553 40.5281 86.951 40.5281 86.348C41.0701 86.89 41.6111 87.431 42.1531 87.973C42.7961 88.615 43.7931 87.619 43.1501 86.976C42.2761 86.102 41.4021 85.228 40.5281 84.354C40.5281 82.58 40.5281 80.805 40.5281 79.031C42.0651 79.918 43.6011 80.805 45.1381 81.692C45.4581 82.887 45.7791 84.083 46.0991 85.278C46.3341 86.154 47.6941 85.782 47.4591 84.903C47.2611 84.165 47.0631 83.427 46.8661 82.689C47.3861 82.989 47.9071 83.29 48.4271 83.59C49.2141 84.044 49.9251 82.827 49.1391 82.372C48.6171 82.07 48.0941 81.769 47.5711 81.467C48.3121 81.268 49.0541 81.07 49.7951 80.871C50.6691 80.635 50.2971 79.274 49.4191 79.51Z" fill="#0284C7"/>
<path d="M81.2859 79.51C80.0939 79.83 78.9019 80.149 77.7089 80.468C76.1729 79.581 74.6359 78.694 73.0989 77.807C74.6359 76.92 76.1719 76.033 77.7089 75.146C78.9009 75.466 80.0929 75.785 81.2859 76.104C82.1639 76.339 82.5379 74.979 81.6609 74.744C80.9199 74.545 80.1779 74.347 79.4369 74.148C79.9599 73.846 80.4819 73.545 81.0049 73.243C81.7909 72.789 81.0809 71.57 80.2929 72.026C79.7729 72.326 79.2519 72.627 78.7319 72.927C78.9299 72.189 79.1279 71.451 79.3249 70.713C79.5599 69.835 78.1999 69.461 77.9649 70.338C77.6449 71.533 77.3239 72.729 77.0039 73.925C75.4669 74.812 73.9309 75.699 72.3939 76.586C72.3939 74.812 72.3939 73.037 72.3939 71.263C73.2679 70.389 74.1419 69.515 75.0159 68.641C75.6579 67.999 74.6619 67.001 74.0189 67.644C73.4769 68.185 72.9359 68.727 72.3939 69.269C72.3939 68.667 72.3939 68.065 72.3939 67.462C72.3939 66.555 70.9839 66.553 70.9839 67.462C70.9839 68.064 70.9839 68.666 70.9839 69.269C70.4419 68.727 69.9009 68.186 69.3589 67.644C68.7169 67.001 67.7189 67.998 68.3619 68.641C69.2359 69.515 70.1099 70.389 70.9839 71.263C70.9839 73.037 70.9839 74.812 70.9839 76.586C69.4469 75.699 67.9109 74.812 66.3739 73.925C66.0539 72.73 65.7329 71.534 65.4129 70.339C65.1779 69.463 63.8179 69.835 64.0529 70.714C64.2509 71.452 64.4479 72.19 64.6459 72.928C64.1259 72.628 63.6049 72.327 63.0849 72.027C62.2979 71.573 61.5869 72.79 62.3729 73.244C62.8949 73.546 63.4179 73.847 63.9409 74.149C63.1999 74.348 62.4579 74.546 61.7169 74.745C60.8409 74.98 61.2129 76.34 62.0919 76.105C63.2839 75.786 64.4759 75.466 65.6689 75.147C67.2059 76.034 68.7419 76.921 70.2789 77.808C68.7419 78.695 67.2059 79.582 65.6689 80.469C64.4769 80.15 63.2849 79.83 62.0919 79.511C61.2149 79.276 60.8399 80.636 61.7169 80.871C62.4579 81.07 63.1999 81.268 63.9409 81.467C63.4179 81.769 62.8959 82.07 62.3729 82.372C61.5869 82.826 62.2969 84.045 63.0849 83.59C63.6049 83.29 64.1259 82.989 64.6459 82.689C64.4479 83.427 64.2499 84.165 64.0529 84.903C63.8179 85.78 65.1779 86.155 65.4129 85.278C65.7329 84.083 66.0539 82.887 66.3739 81.692C67.9109 80.805 69.4469 79.918 70.9839 79.031C70.9839 80.805 70.9839 82.58 70.9839 84.354C70.1099 85.228 69.2359 86.102 68.3619 86.976C67.7199 87.618 68.7159 88.616 69.3589 87.973C69.9009 87.431 70.4419 86.89 70.9839 86.348C70.9839 86.95 70.9839 87.552 70.9839 88.155C70.9839 89.062 72.3939 89.064 72.3939 88.155C72.3939 87.553 72.3939 86.951 72.3939 86.348C72.9359 86.89 73.4769 87.431 74.0189 87.973C74.6619 88.615 75.6589 87.619 75.0159 86.976C74.1419 86.102 73.2679 85.228 72.3939 84.354C72.3939 82.58 72.3939 80.805 72.3939 79.031C73.9309 79.918 75.4669 80.805 77.0039 81.692C77.3239 82.887 77.6449 84.083 77.9649 85.278C78.1999 86.154 79.5599 85.782 79.3249 84.903C79.1269 84.165 78.9289 83.427 78.7319 82.689C79.2519 82.989 79.7729 83.29 80.2929 83.59C81.0799 84.044 81.7909 82.827 81.0049 82.372C80.4829 82.07 79.9599 81.769 79.4369 81.467C80.1779 81.268 80.9199 81.07 81.6609 80.871C82.5359 80.635 82.1649 79.274 81.2859 79.51Z" fill="#0284C7"/>
</svg>
