<svg width="114" height="106" viewBox="0 0 114 106" fill="none" xmlns="http://www.w3.org/2000/svg">
<path d="M98.868 25.292C97.291 17.937 90.527 12.408 82.42 12.408C78.455 12.408 74.818 13.738 71.945 15.95C67.101 6.502 56.998 0 45.312 0C30.202 0 17.737 10.87 15.874 24.929C6.82101 26.892 0 34.705 0 43.991V43.998C0 54.75 9.139 63.547 20.308 63.547H56.452L50.136 54.661L71.563 47.036L76.889 62.004L85.949 58.78L87.645 63.547H92.969C104.138 63.547 113.277 54.75 113.277 43.998V43.991C113.279 35.211 107.184 27.74 98.868 25.292Z" fill="#0284C7"/>
<path d="M26.159 16.363C30.632 9.98401 37.454 6.38101 45.232 6.18301C47.043 6.13701 47.05 3.31601 45.232 3.36301C36.408 3.58801 28.786 7.71801 23.723 14.939C22.679 16.429 25.123 17.84 26.159 16.363Z" fill="white"/>
<path d="M6.58996 45.045C6.72396 39.748 9.31096 35.133 13.775 32.278C15.299 31.303 13.887 28.861 12.352 29.843C7.02597 33.249 3.92997 38.726 3.76997 45.045C3.72397 46.861 6.54396 46.86 6.58996 45.045Z" fill="white"/>
<path d="M100.875 91.666L96.499 71.022L89.409 73.546L84.923 60.941L75.864 64.165L70.537 49.197L52.812 55.505L67.921 76.76L78.162 73.116L84.288 84.095L91.772 81.432L100.875 91.666Z" fill="#FACC15"/>
<path d="M35.469 69.201C37.913 73.055 40.357 76.909 42.801 80.764C43.66 82.119 45.825 80.866 44.96 79.502C42.516 75.648 40.072 71.794 37.628 67.939C36.768 66.584 34.604 67.837 35.469 69.201Z" fill="#0284C7"/>
<path d="M51.832 72.386C54.276 76.24 56.72 80.094 59.164 83.949C60.023 85.304 62.188 84.051 61.323 82.687C58.879 78.833 56.4351 74.979 53.9911 71.124C53.1311 69.77 50.967 71.022 51.832 72.386Z" fill="#0284C7"/>
<path d="M47.7331 89.9759C50.1771 93.8299 52.6211 97.684 55.0651 101.539C55.9241 102.894 58.089 101.641 57.224 100.277C54.78 96.423 52.336 92.569 49.892 88.714C49.032 87.359 46.8681 88.6119 47.7331 89.9759Z" fill="#0284C7"/>
<path d="M32.7781 84.642C35.2221 88.496 37.6661 92.35 40.1101 96.205C40.9691 97.56 43.1341 96.307 42.2691 94.943C39.8251 91.089 37.3811 87.235 34.9371 83.38C34.0781 82.025 31.9141 83.278 32.7781 84.642Z" fill="#0284C7"/>
<path d="M64.0961 93.161C66.5401 97.015 68.9841 100.869 71.4281 104.724C72.2871 106.079 74.4521 104.826 73.5871 103.462C71.1431 99.608 68.6991 95.754 66.2551 91.899C65.3951 90.544 63.2311 91.797 64.0961 93.161Z" fill="#0284C7"/>
</svg>
